<?xml version="1.0" encoding="UTF-8" standalone="no"?>
<svg
   xmlns:dc="http://purl.org/dc/elements/1.1/"
   xmlns:cc="http://creativecommons.org/ns#"
   xmlns:rdf="http://www.w3.org/1999/02/22-rdf-syntax-ns#"
   xmlns:svg="http://www.w3.org/2000/svg"
   xmlns="http://www.w3.org/2000/svg"
   xmlns:sodipodi="http://sodipodi.sourceforge.net/DTD/sodipodi-0.dtd"
   xmlns:inkscape="http://www.inkscape.org/namespaces/inkscape"
   width="118.05179mm"
   height="80.263657mm"
   viewBox="0 0 118.05179 80.263656"
   version="1.1"
   id="svg8"
   inkscape:version="1.0.1 (3bc2e813f5, 2020-09-07)"
   sodipodi:docname="gaussian_symbol.svg">
  <defs
     id="defs2">
    <style
       type="text/css"
       id="style2253">
*{stroke-linecap:butt;stroke-linejoin:round;}
  </style>
    <path
       d="M 0,0 V 3.5"
       id="me0089363b6"
       style="stroke:#000000;stroke-width:0.8" />
    <path
       d="m 31.78125,66.40625 q -7.609375,0 -11.453125,-7.5 Q 16.5,51.421875 16.5,36.375 q 0,-14.984375 3.828125,-22.484375 3.84375,-7.5 11.453125,-7.5 7.671875,0 11.5,7.5 3.84375,7.5 3.84375,22.484375 0,15.046875 -3.84375,22.53125 -3.828125,7.5 -11.5,7.5 z m 0,7.8125 q 12.265625,0 18.734375,-9.703125 6.46875,-9.6875 6.46875,-28.140625 0,-18.40625 -6.46875,-28.109375 -6.46875,-9.6875 -18.734375,-9.6875 -12.25,0 -18.71875,9.6875 Q 6.59375,17.96875 6.59375,36.375 q 0,18.453125 6.46875,28.140625 6.46875,9.703125 18.71875,9.703125 z"
       id="DejaVuSans-48" />
    <path
       d="m 12.40625,8.296875 h 16.109375 v 55.625 L 10.984375,60.40625 v 8.984375 l 17.4375,3.515625 H 38.28125 V 8.296875 H 54.390625 V 0 H 12.40625 Z"
       id="DejaVuSans-49" />
    <path
       d="M 19.1875,8.296875 H 53.609375 V 0 H 7.328125 v 8.296875 q 5.609375,5.8125 15.296875,15.59375 9.703125,9.796875 12.1875,12.640625 4.734375,5.3125 6.609375,9 1.890625,3.6875 1.890625,7.25 0,5.8125 -4.078125,9.46875 -4.078125,3.671875 -10.625,3.671875 -4.640625,0 -9.796875,-1.609375 -5.140625,-1.609375 -11,-4.890625 v 9.96875 Q 13.765625,71.78125 18.9375,73 q 5.1875,1.21875 9.484375,1.21875 11.328125,0 18.0625,-5.671875 6.734375,-5.65625 6.734375,-15.125 0,-4.5 -1.6875,-8.53125 Q 49.859375,40.875 45.40625,35.40625 44.1875,33.984375 37.640625,27.21875 31.109375,20.453125 19.1875,8.296875 Z"
       id="DejaVuSans-50" />
    <path
       d="M 40.578125,39.3125 Q 47.65625,37.796875 51.625,33 q 3.984375,-4.78125 3.984375,-11.8125 0,-10.78125 -7.421875,-16.703125 -7.421875,-5.90625 -21.09375,-5.90625 -4.578125,0 -9.4375,0.90625 -4.859375,0.90625 -10.03125,2.71875 v 9.515625 q 4.09375,-2.390625 8.96875,-3.609375 4.890625,-1.21875 10.21875,-1.21875 9.265625,0 14.125,3.65625 4.859375,3.65625 4.859375,10.640625 0,6.453125 -4.515625,10.078125 -4.515625,3.640625 -12.5625,3.640625 h -8.5 v 8.109375 h 8.890625 q 7.265625,0 11.125,2.90625 3.859375,2.90625 3.859375,8.375 0,5.609375 -3.984375,8.609375 -3.96875,3.015625 -11.390625,3.015625 -4.0625,0 -8.703125,-0.890625 Q 15.375,64.15625 9.8125,62.3125 v 8.78125 q 5.625,1.5625 10.53125,2.34375 4.90625,0.78125 9.25,0.78125 11.234375,0 17.765625,-5.109375 6.546875,-5.09375 6.546875,-13.78125 0,-6.0625 -3.46875,-10.234375 -3.46875,-4.171875 -9.859375,-5.78125 z"
       id="DejaVuSans-51" />
    <path
       d="M 37.796875,64.3125 12.890625,25.390625 h 24.90625 z m -2.59375,8.59375 h 12.40625 V 25.390625 h 10.40625 V 17.1875 H 47.609375 V 0 h -9.8125 V 17.1875 H 4.890625 v 9.515625 z"
       id="DejaVuSans-52" />
    <path
       d="m 10.796875,72.90625 h 38.71875 v -8.3125 h -29.6875 V 46.734375 q 2.140625,0.734375 4.28125,1.09375 2.15625,0.359375 4.3125,0.359375 Q 40.625,48.1875 47.75,41.5 54.890625,34.8125 54.890625,23.390625 54.890625,11.625 47.5625,5.09375 40.234375,-1.421875 26.90625,-1.421875 q -4.59375,0 -9.359375,0.78125 -4.75,0.78125 -9.828125,2.34375 V 11.625 q 4.390625,-2.390625 9.078125,-3.5625 4.6875,-1.171875 9.90625,-1.171875 8.453125,0 13.375,4.4375 4.9375,4.4375 4.9375,12.0625 0,7.609375 -4.9375,12.046875 -4.921875,4.453125 -13.375,4.453125 -3.953125,0 -7.890625,-0.875 -3.921875,-0.875 -8.015625,-2.734375 z"
       id="DejaVuSans-53" />
    <path
       d="M 0,0 H -3.5"
       id="m110142c8cc"
       style="stroke:#000000;stroke-width:0.8" />
    <path
       d="M 10.6875,12.40625 H 21 V 0 H 10.6875 Z"
       id="DejaVuSans-46" />
    <path
       d="m 33.015625,40.375 q -6.640625,0 -10.53125,-4.546875 -3.875,-4.53125 -3.875,-12.4375 0,-7.859375 3.875,-12.4375 3.890625,-4.5625 10.53125,-4.5625 6.640625,0 10.515625,4.5625 3.875,4.578125 3.875,12.4375 0,7.90625 -3.875,12.4375 Q 39.65625,40.375 33.015625,40.375 Z M 52.59375,71.296875 V 62.3125 q -3.71875,1.75 -7.5,2.671875 -3.78125,0.9375 -7.5,0.9375 -9.765625,0 -14.921875,-6.59375 -5.140625,-6.59375 -5.875,-19.921875 2.875,4.25 7.21875,6.515625 4.359375,2.265625 9.578125,2.265625 10.984375,0 17.359375,-6.671875 6.375,-6.65625 6.375,-18.125 0,-11.234375 -6.640625,-18.03125 -6.640625,-6.78125 -17.671875,-6.78125 -12.65625,0 -19.34375,9.6875 -6.6875,9.703125 -6.6875,28.109375 0,17.28125 8.203125,27.5625 8.203125,10.28125 22.015625,10.28125 3.71875,0 7.5,-0.734375 3.78125,-0.734375 7.890625,-2.1875 z"
       id="DejaVuSans-54" />
    <path
       d="m 31.78125,34.625 q -7.03125,0 -11.0625,-3.765625 -4.015625,-3.765625 -4.015625,-10.34375 0,-6.59375 4.015625,-10.359375 4.03125,-3.765625 11.0625,-3.765625 7.03125,0 11.078125,3.78125 4.0625,3.796875 4.0625,10.34375 0,6.578125 -4.03125,10.34375 Q 38.875,34.625 31.78125,34.625 Z m -9.859375,4.1875 Q 15.578125,40.375 12.03125,44.71875 8.5,49.078125 8.5,55.328125 q 0,8.734375 6.21875,13.8125 6.234375,5.078125 17.0625,5.078125 10.890625,0 17.09375,-5.078125 6.203125,-5.078125 6.203125,-13.8125 0,-6.25 -3.546875,-10.609375 Q 48,40.375 41.703125,38.8125 q 7.125,-1.65625 11.09375,-6.5 3.984375,-4.828125 3.984375,-11.796875 0,-10.609375 -6.46875,-16.28125 -6.46875,-5.65625 -18.53125,-5.65625 -12.046875,0 -18.53125,5.65625 -6.46875,5.671875 -6.46875,16.28125 0,6.96875 4,11.796875 4.015625,4.84375 11.140625,6.5 z M 18.3125,54.390625 q 0,-5.65625 3.53125,-8.828125 3.546875,-3.171875 9.9375,-3.171875 6.359375,0 9.9375,3.171875 3.59375,3.171875 3.59375,8.828125 0,5.671875 -3.59375,8.84375 -3.578125,3.171875 -9.9375,3.171875 -6.390625,0 -9.9375,-3.171875 Q 18.3125,60.0625 18.3125,54.390625 Z"
       id="DejaVuSans-56" />
    <clipPath
       id="p6e22b05d89">
      <rect
         height="217.44"
         width="334.79999"
         x="54"
         y="34.560001"
         id="rect2476" />
    </clipPath>
    <style
       type="text/css"
       id="style2651">
*{stroke-linecap:butt;stroke-linejoin:round;}
  </style>
    <path
       d="M 0,0 V 3.5"
       id="m6828a29511"
       style="stroke:#000000;stroke-width:0.8" />
    <path
       d="m 31.78125,66.40625 q -7.609375,0 -11.453125,-7.5 Q 16.5,51.421875 16.5,36.375 q 0,-14.984375 3.828125,-22.484375 3.84375,-7.5 11.453125,-7.5 7.671875,0 11.5,7.5 3.84375,7.5 3.84375,22.484375 0,15.046875 -3.84375,22.53125 -3.828125,7.5 -11.5,7.5 z m 0,7.8125 q 12.265625,0 18.734375,-9.703125 6.46875,-9.6875 6.46875,-28.140625 0,-18.40625 -6.46875,-28.109375 -6.46875,-9.6875 -18.734375,-9.6875 -12.25,0 -18.71875,9.6875 Q 6.59375,17.96875 6.59375,36.375 q 0,18.453125 6.46875,28.140625 6.46875,9.703125 18.71875,9.703125 z"
       id="DejaVuSans-48-6" />
    <path
       d="m 12.40625,8.296875 h 16.109375 v 55.625 L 10.984375,60.40625 v 8.984375 l 17.4375,3.515625 H 38.28125 V 8.296875 H 54.390625 V 0 H 12.40625 Z"
       id="DejaVuSans-49-6" />
    <path
       d="M 19.1875,8.296875 H 53.609375 V 0 H 7.328125 v 8.296875 q 5.609375,5.8125 15.296875,15.59375 9.703125,9.796875 12.1875,12.640625 4.734375,5.3125 6.609375,9 1.890625,3.6875 1.890625,7.25 0,5.8125 -4.078125,9.46875 -4.078125,3.671875 -10.625,3.671875 -4.640625,0 -9.796875,-1.609375 -5.140625,-1.609375 -11,-4.890625 v 9.96875 Q 13.765625,71.78125 18.9375,73 q 5.1875,1.21875 9.484375,1.21875 11.328125,0 18.0625,-5.671875 6.734375,-5.65625 6.734375,-15.125 0,-4.5 -1.6875,-8.53125 Q 49.859375,40.875 45.40625,35.40625 44.1875,33.984375 37.640625,27.21875 31.109375,20.453125 19.1875,8.296875 Z"
       id="DejaVuSans-50-6" />
    <path
       d="M 40.578125,39.3125 Q 47.65625,37.796875 51.625,33 q 3.984375,-4.78125 3.984375,-11.8125 0,-10.78125 -7.421875,-16.703125 -7.421875,-5.90625 -21.09375,-5.90625 -4.578125,0 -9.4375,0.90625 -4.859375,0.90625 -10.03125,2.71875 v 9.515625 q 4.09375,-2.390625 8.96875,-3.609375 4.890625,-1.21875 10.21875,-1.21875 9.265625,0 14.125,3.65625 4.859375,3.65625 4.859375,10.640625 0,6.453125 -4.515625,10.078125 -4.515625,3.640625 -12.5625,3.640625 h -8.5 v 8.109375 h 8.890625 q 7.265625,0 11.125,2.90625 3.859375,2.90625 3.859375,8.375 0,5.609375 -3.984375,8.609375 -3.96875,3.015625 -11.390625,3.015625 -4.0625,0 -8.703125,-0.890625 Q 15.375,64.15625 9.8125,62.3125 v 8.78125 q 5.625,1.5625 10.53125,2.34375 4.90625,0.78125 9.25,0.78125 11.234375,0 17.765625,-5.109375 6.546875,-5.09375 6.546875,-13.78125 0,-6.0625 -3.46875,-10.234375 -3.46875,-4.171875 -9.859375,-5.78125 z"
       id="DejaVuSans-51-0" />
    <path
       d="M 37.796875,64.3125 12.890625,25.390625 h 24.90625 z m -2.59375,8.59375 h 12.40625 V 25.390625 h 10.40625 V 17.1875 H 47.609375 V 0 h -9.8125 V 17.1875 H 4.890625 v 9.515625 z"
       id="DejaVuSans-52-9" />
    <path
       d="m 10.796875,72.90625 h 38.71875 v -8.3125 h -29.6875 V 46.734375 q 2.140625,0.734375 4.28125,1.09375 2.15625,0.359375 4.3125,0.359375 Q 40.625,48.1875 47.75,41.5 54.890625,34.8125 54.890625,23.390625 54.890625,11.625 47.5625,5.09375 40.234375,-1.421875 26.90625,-1.421875 q -4.59375,0 -9.359375,0.78125 -4.75,0.78125 -9.828125,2.34375 V 11.625 q 4.390625,-2.390625 9.078125,-3.5625 4.6875,-1.171875 9.90625,-1.171875 8.453125,0 13.375,4.4375 4.9375,4.4375 4.9375,12.0625 0,7.609375 -4.9375,12.046875 -4.921875,4.453125 -13.375,4.453125 -3.953125,0 -7.890625,-0.875 -3.921875,-0.875 -8.015625,-2.734375 z"
       id="DejaVuSans-53-3" />
    <path
       d="M 0,0 H -3.5"
       id="m4568d1e23f"
       style="stroke:#000000;stroke-width:0.8" />
    <path
       d="M 10.59375,35.5 H 73.1875 V 27.203125 H 10.59375 Z"
       id="DejaVuSans-8722" />
    <path
       d="M 10.6875,12.40625 H 21 V 0 H 10.6875 Z"
       id="DejaVuSans-46-3" />
    <path
       d="m 33.015625,40.375 q -6.640625,0 -10.53125,-4.546875 -3.875,-4.53125 -3.875,-12.4375 0,-7.859375 3.875,-12.4375 3.890625,-4.5625 10.53125,-4.5625 6.640625,0 10.515625,4.5625 3.875,4.578125 3.875,12.4375 0,7.90625 -3.875,12.4375 Q 39.65625,40.375 33.015625,40.375 Z M 52.59375,71.296875 V 62.3125 q -3.71875,1.75 -7.5,2.671875 -3.78125,0.9375 -7.5,0.9375 -9.765625,0 -14.921875,-6.59375 -5.140625,-6.59375 -5.875,-19.921875 2.875,4.25 7.21875,6.515625 4.359375,2.265625 9.578125,2.265625 10.984375,0 17.359375,-6.671875 6.375,-6.65625 6.375,-18.125 0,-11.234375 -6.640625,-18.03125 -6.640625,-6.78125 -17.671875,-6.78125 -12.65625,0 -19.34375,9.6875 -6.6875,9.703125 -6.6875,28.109375 0,17.28125 8.203125,27.5625 8.203125,10.28125 22.015625,10.28125 3.71875,0 7.5,-0.734375 3.78125,-0.734375 7.890625,-2.1875 z"
       id="DejaVuSans-54-9" />
    <path
       d="m 31.78125,34.625 q -7.03125,0 -11.0625,-3.765625 -4.015625,-3.765625 -4.015625,-10.34375 0,-6.59375 4.015625,-10.359375 4.03125,-3.765625 11.0625,-3.765625 7.03125,0 11.078125,3.78125 4.0625,3.796875 4.0625,10.34375 0,6.578125 -4.03125,10.34375 Q 38.875,34.625 31.78125,34.625 Z m -9.859375,4.1875 Q 15.578125,40.375 12.03125,44.71875 8.5,49.078125 8.5,55.328125 q 0,8.734375 6.21875,13.8125 6.234375,5.078125 17.0625,5.078125 10.890625,0 17.09375,-5.078125 6.203125,-5.078125 6.203125,-13.8125 0,-6.25 -3.546875,-10.609375 Q 48,40.375 41.703125,38.8125 q 7.125,-1.65625 11.09375,-6.5 3.984375,-4.828125 3.984375,-11.796875 0,-10.609375 -6.46875,-16.28125 -6.46875,-5.65625 -18.53125,-5.65625 -12.046875,0 -18.53125,5.65625 -6.46875,5.671875 -6.46875,16.28125 0,6.96875 4,11.796875 4.015625,4.84375 11.140625,6.5 z M 18.3125,54.390625 q 0,-5.65625 3.53125,-8.828125 3.546875,-3.171875 9.9375,-3.171875 6.359375,0 9.9375,3.171875 3.59375,3.171875 3.59375,8.828125 0,5.671875 -3.59375,8.84375 -3.578125,3.171875 -9.9375,3.171875 -6.390625,0 -9.9375,-3.171875 Q 18.3125,60.0625 18.3125,54.390625 Z"
       id="DejaVuSans-56-9" />
    <clipPath
       id="pd139f38fbf">
      <rect
         height="217.44"
         width="334.79999"
         x="54"
         y="34.560001"
         id="rect2939" />
    </clipPath>
    <style
       type="text/css"
       id="style3155">
*{stroke-linecap:butt;stroke-linejoin:round;}
  </style>
    <path
       d="M 0,0 V 3.5"
       id="m36b4bbb37b"
       style="stroke:#000000;stroke-width:0.8" />
    <path
       d="m 31.78125,66.40625 q -7.609375,0 -11.453125,-7.5 Q 16.5,51.421875 16.5,36.375 q 0,-14.984375 3.828125,-22.484375 3.84375,-7.5 11.453125,-7.5 7.671875,0 11.5,7.5 3.84375,7.5 3.84375,22.484375 0,15.046875 -3.84375,22.53125 -3.828125,7.5 -11.5,7.5 z m 0,7.8125 q 12.265625,0 18.734375,-9.703125 6.46875,-9.6875 6.46875,-28.140625 0,-18.40625 -6.46875,-28.109375 -6.46875,-9.6875 -18.734375,-9.6875 -12.25,0 -18.71875,9.6875 Q 6.59375,17.96875 6.59375,36.375 q 0,18.453125 6.46875,28.140625 6.46875,9.703125 18.71875,9.703125 z"
       id="DejaVuSans-48-1" />
    <path
       d="m 12.40625,8.296875 h 16.109375 v 55.625 L 10.984375,60.40625 v 8.984375 l 17.4375,3.515625 H 38.28125 V 8.296875 H 54.390625 V 0 H 12.40625 Z"
       id="DejaVuSans-49-1" />
    <path
       d="M 19.1875,8.296875 H 53.609375 V 0 H 7.328125 v 8.296875 q 5.609375,5.8125 15.296875,15.59375 9.703125,9.796875 12.1875,12.640625 4.734375,5.3125 6.609375,9 1.890625,3.6875 1.890625,7.25 0,5.8125 -4.078125,9.46875 -4.078125,3.671875 -10.625,3.671875 -4.640625,0 -9.796875,-1.609375 -5.140625,-1.609375 -11,-4.890625 v 9.96875 Q 13.765625,71.78125 18.9375,73 q 5.1875,1.21875 9.484375,1.21875 11.328125,0 18.0625,-5.671875 6.734375,-5.65625 6.734375,-15.125 0,-4.5 -1.6875,-8.53125 Q 49.859375,40.875 45.40625,35.40625 44.1875,33.984375 37.640625,27.21875 31.109375,20.453125 19.1875,8.296875 Z"
       id="DejaVuSans-50-8" />
    <path
       d="M 40.578125,39.3125 Q 47.65625,37.796875 51.625,33 q 3.984375,-4.78125 3.984375,-11.8125 0,-10.78125 -7.421875,-16.703125 -7.421875,-5.90625 -21.09375,-5.90625 -4.578125,0 -9.4375,0.90625 -4.859375,0.90625 -10.03125,2.71875 v 9.515625 q 4.09375,-2.390625 8.96875,-3.609375 4.890625,-1.21875 10.21875,-1.21875 9.265625,0 14.125,3.65625 4.859375,3.65625 4.859375,10.640625 0,6.453125 -4.515625,10.078125 -4.515625,3.640625 -12.5625,3.640625 h -8.5 v 8.109375 h 8.890625 q 7.265625,0 11.125,2.90625 3.859375,2.90625 3.859375,8.375 0,5.609375 -3.984375,8.609375 -3.96875,3.015625 -11.390625,3.015625 -4.0625,0 -8.703125,-0.890625 Q 15.375,64.15625 9.8125,62.3125 v 8.78125 q 5.625,1.5625 10.53125,2.34375 4.90625,0.78125 9.25,0.78125 11.234375,0 17.765625,-5.109375 6.546875,-5.09375 6.546875,-13.78125 0,-6.0625 -3.46875,-10.234375 -3.46875,-4.171875 -9.859375,-5.78125 z"
       id="DejaVuSans-51-2" />
    <path
       d="M 37.796875,64.3125 12.890625,25.390625 h 24.90625 z m -2.59375,8.59375 h 12.40625 V 25.390625 h 10.40625 V 17.1875 H 47.609375 V 0 h -9.8125 V 17.1875 H 4.890625 v 9.515625 z"
       id="DejaVuSans-52-7" />
    <path
       d="m 10.796875,72.90625 h 38.71875 v -8.3125 h -29.6875 V 46.734375 q 2.140625,0.734375 4.28125,1.09375 2.15625,0.359375 4.3125,0.359375 Q 40.625,48.1875 47.75,41.5 54.890625,34.8125 54.890625,23.390625 54.890625,11.625 47.5625,5.09375 40.234375,-1.421875 26.90625,-1.421875 q -4.59375,0 -9.359375,0.78125 -4.75,0.78125 -9.828125,2.34375 V 11.625 q 4.390625,-2.390625 9.078125,-3.5625 4.6875,-1.171875 9.90625,-1.171875 8.453125,0 13.375,4.4375 4.9375,4.4375 4.9375,12.0625 0,7.609375 -4.9375,12.046875 -4.921875,4.453125 -13.375,4.453125 -3.953125,0 -7.890625,-0.875 -3.921875,-0.875 -8.015625,-2.734375 z"
       id="DejaVuSans-53-8" />
    <path
       d="M 0,0 H -3.5"
       id="m344c811632"
       style="stroke:#000000;stroke-width:0.8" />
    <path
       d="M 10.59375,35.5 H 73.1875 V 27.203125 H 10.59375 Z"
       id="DejaVuSans-8722-0" />
    <path
       d="m 33.015625,40.375 q -6.640625,0 -10.53125,-4.546875 -3.875,-4.53125 -3.875,-12.4375 0,-7.859375 3.875,-12.4375 3.890625,-4.5625 10.53125,-4.5625 6.640625,0 10.515625,4.5625 3.875,4.578125 3.875,12.4375 0,7.90625 -3.875,12.4375 Q 39.65625,40.375 33.015625,40.375 Z M 52.59375,71.296875 V 62.3125 q -3.71875,1.75 -7.5,2.671875 -3.78125,0.9375 -7.5,0.9375 -9.765625,0 -14.921875,-6.59375 -5.140625,-6.59375 -5.875,-19.921875 2.875,4.25 7.21875,6.515625 4.359375,2.265625 9.578125,2.265625 10.984375,0 17.359375,-6.671875 6.375,-6.65625 6.375,-18.125 0,-11.234375 -6.640625,-18.03125 -6.640625,-6.78125 -17.671875,-6.78125 -12.65625,0 -19.34375,9.6875 -6.6875,9.703125 -6.6875,28.109375 0,17.28125 8.203125,27.5625 8.203125,10.28125 22.015625,10.28125 3.71875,0 7.5,-0.734375 3.78125,-0.734375 7.890625,-2.1875 z"
       id="DejaVuSans-54-6" />
    <path
       d="m 31.78125,34.625 q -7.03125,0 -11.0625,-3.765625 -4.015625,-3.765625 -4.015625,-10.34375 0,-6.59375 4.015625,-10.359375 4.03125,-3.765625 11.0625,-3.765625 7.03125,0 11.078125,3.78125 4.0625,3.796875 4.0625,10.34375 0,6.578125 -4.03125,10.34375 Q 38.875,34.625 31.78125,34.625 Z m -9.859375,4.1875 Q 15.578125,40.375 12.03125,44.71875 8.5,49.078125 8.5,55.328125 q 0,8.734375 6.21875,13.8125 6.234375,5.078125 17.0625,5.078125 10.890625,0 17.09375,-5.078125 6.203125,-5.078125 6.203125,-13.8125 0,-6.25 -3.546875,-10.609375 Q 48,40.375 41.703125,38.8125 q 7.125,-1.65625 11.09375,-6.5 3.984375,-4.828125 3.984375,-11.796875 0,-10.609375 -6.46875,-16.28125 -6.46875,-5.65625 -18.53125,-5.65625 -12.046875,0 -18.53125,5.65625 -6.46875,5.671875 -6.46875,16.28125 0,6.96875 4,11.796875 4.015625,4.84375 11.140625,6.5 z M 18.3125,54.390625 q 0,-5.65625 3.53125,-8.828125 3.546875,-3.171875 9.9375,-3.171875 6.359375,0 9.9375,3.171875 3.59375,3.171875 3.59375,8.828125 0,5.671875 -3.59375,8.84375 -3.578125,3.171875 -9.9375,3.171875 -6.390625,0 -9.9375,-3.171875 Q 18.3125,60.0625 18.3125,54.390625 Z"
       id="DejaVuSans-56-0" />
    <clipPath
       id="pcad9bc1006">
      <rect
         height="217.44"
         width="334.79999"
         x="54"
         y="34.560001"
         id="rect3384" />
    </clipPath>
  </defs>
  <sodipodi:namedview
     id="base"
     pagecolor="#ffffff"
     bordercolor="#666666"
     borderopacity="1.0"
     inkscape:pageopacity="0.0"
     inkscape:pageshadow="2"
     inkscape:zoom="0.49497475"
     inkscape:cx="128.43646"
     inkscape:cy="401.77162"
     inkscape:document-units="mm"
     inkscape:current-layer="figure_1-8"
     inkscape:document-rotation="0"
     showgrid="false"
     lock-margins="true"
     fit-margin-top="5"
     fit-margin-left="5"
     fit-margin-right="5"
     fit-margin-bottom="5"
     inkscape:window-width="1920"
     inkscape:window-height="1017"
     inkscape:window-x="-8"
     inkscape:window-y="-8"
     inkscape:window-maximized="1" />
  <metadata
     id="metadata5">
    <rdf:RDF>
      <cc:Work
         rdf:about="">
        <dc:format>image/svg+xml</dc:format>
        <dc:type
           rdf:resource="http://purl.org/dc/dcmitype/StillImage" />
        <dc:title></dc:title>
      </cc:Work>
    </rdf:RDF>
  </metadata>
  <g
     inkscape:label="Layer 1"
     inkscape:groupmode="layer"
     id="layer1"
     transform="translate(167.14337,-36.822469)">
    <g
       style="stroke-linecap:butt;stroke-linejoin:round"
       id="g2649"
       transform="matrix(0.35277778,0,0,0.35277778,2.6080353,155.00804)">
      <g
         id="figure_1">
        <g
           id="axes_1">
          <g
             id="patch_2" />
          <g
             id="line2d_12">
            <path
               clip-path="url(#p6e22b05d89)"
               d="m 69.218182,95.471294 h 12.198943 l 0.609947,146.645066 h 33.547098 l 0.60994,-58.4772 h 85.39261 l 0.60994,-139.195524 h 18.29842 l 0.60995,54.220211 h 35.98688 l 0.60995,-24.080536 h 115.88996 v 0"
               style="fill:none;stroke:#1f77b4;stroke-width:1.5;stroke-linecap:square"
               id="path2459" />
          </g>
          <g
             style="stroke-linecap:butt;stroke-linejoin:round"
             id="g3153"
             transform="translate(-1364.1126,-129.67414)">
            <g
               id="figure_1-8">
              <g
                 id="patch_1">
                <path
                   d="M 0,288 H 432 V 0 H 0 Z"
                   style="fill:#ffffff"
                   id="path2655" />
              </g>
              <g
                 id="axes_1-7"
                 transform="translate(289.4087,90.913728)">
                <g
                   id="line2d_16">
                  <path
                     clip-path="url(#pd139f38fbf)"
                     d="m 69.218182,109.81439 1.219894,-3.68798 1.219894,-2.98003 1.219895,-2.22878 0.609947,-0.8229 0.609947,-0.625233 0.609947,-0.426266 0.609947,-0.227027 0.609948,-0.02855 0.609947,0.168127 0.609947,0.361936 0.609947,0.551823 0.609947,0.73674 1.219895,2.00309 1.219894,2.65735 1.219894,3.23595 1.829842,5.73915 2.439788,8.74299 4.269631,15.57834 1.829841,5.69029 1.219895,3.17078 1.219894,2.55349 1.219894,1.8488 0.609947,0.63699 0.609948,0.43511 0.609947,0.22694 0.609947,0.0136 0.609947,-0.20365 0.609947,-0.42366 0.60995,-0.64517 0.60994,-0.86692 1.2199,-2.39394 1.21989,-3.25304 1.2199,-4.07015 1.21989,-4.82691 1.82984,-8.48606 1.82984,-9.68869 3.04974,-17.76045 3.65968,-21.487458 1.82984,-9.781324 1.82985,-8.588453 1.21989,-4.883542 1.2199,-4.101093 1.21989,-3.240341 1.21989,-2.315752 0.60995,-0.795354 0.60995,-0.547191 0.60995,-0.295398 0.60994,-0.04096 0.60995,0.215134 0.60995,0.47191 0.60994,0.728406 0.60995,0.983669 1.2199,2.723585 1.21989,3.707101 1.21989,4.649049 1.2199,5.536923 1.21989,6.359444 1.82984,10.914327 1.82985,12.305176 2.43978,18.014162 4.87958,38.48297 3.04974,23.39744 2.43979,17.19712 1.82984,11.6191 1.82984,10.30407 1.82984,8.84585 1.21989,5.04035 1.2199,4.33773 1.21989,3.63247 1.2199,2.93506 1.21989,2.25557 1.2199,1.6035 1.21989,0.98762 0.60995,0.27635 0.60995,0.13948 0.60994,0.009 0.60995,-0.11421 1.21989,-0.56929 1.2199,-0.9725 1.21989,-1.31159 1.82984,-2.45911 2.43979,-3.85296 4.26963,-6.97212 1.82984,-2.64309 1.82985,-2.26383 1.82984,-1.8181 1.21989,-0.95025 1.2199,-0.74232 1.21989,-0.54393 1.21989,-0.36165 1.82985,-0.24979 1.82984,0.0175 3.04973,0.32615 2.43979,0.22316 1.82984,-0.0208 1.82985,-0.28013 1.21989,-0.36403 1.21989,-0.52197 1.2199,-0.68794 1.82984,-1.34774 1.82984,-1.71428 1.82984,-2.04558 2.43979,-3.14584 3.04974,-4.36266 5.48952,-7.93377 2.43979,-3.14108 2.43979,-2.73131 1.82984,-1.74379 1.82984,-1.47755 1.82984,-1.22563 1.82985,-1.00459 2.43978,-1.0772 6.70942,-2.66828 1.82984,-1.03961 1.82985,-1.34297 1.82984,-1.7341 1.21989,-1.41358 1.2199,-1.64466 1.82984,-2.93927 1.82984,-3.54549 1.82984,-4.17493 1.82984,-4.80047 1.82984,-5.39122 2.43979,-7.98443 3.04974,-10.88077 5.48952,-19.77358 1.82984,-5.87781 1.82985,-5.16463 1.21989,-2.948252 1.21989,-2.490734 1.2199,-1.988242 1.21989,-1.449399 1.2199,-0.884159 0.60994,-0.224864 0.60995,-0.07872 0.60995,0.06747 0.60995,0.212931 0.60994,0.356857 1.2199,1.135386 1.21989,1.672823 1.2199,2.169658 1.21989,2.614086 1.82984,4.613509 2.43979,7.04185 4.87958,14.50669 1.82984,4.66243 1.21989,2.65242 1.2199,2.21054 1.21989,1.7153 1.2199,1.17975 0.60994,0.38028 0.60995,0.23773 0.60995,0.0942 0.60995,-0.0493 0.60994,-0.19178 0.60995,-0.3324 1.21989,-1.07435 1.2199,-1.59097 1.21989,-2.06041 1.2199,-2.47037 1.82984,-4.31823 2.43979,-6.46999 3.65968,-9.77362 1.82984,-4.26516 1.2199,-2.42748 1.21989,-2.01504 1.21989,-1.54592 1.2199,-1.03183 0.60995,-0.312487 0.60994,-0.172812 0.60995,-0.03113 0.60995,0.111749 0.60995,0.254985 0.60994,0.397772 1.2199,1.218133 1.21989,1.76431 1.2199,2.27971 1.21989,2.75379 1.82984,4.907 1.82984,5.65697 2.43979,8.31253 5.48953,19.12314 1.82984,5.69057 1.82984,5.0249 1.82984,4.2115 1.21989,2.29906 1.2199,1.86313 1.21989,1.41051 1.2199,0.94838 1.21989,0.48367 0.60995,0.0686 0.60995,-0.0456 1.21989,-0.42738 1.2199,-0.86155 1.21989,-1.27403 1.21989,-1.65978 1.2199,-2.01418 1.82984,-3.60695 1.82984,-4.18825 0.60995,-1.49961 v 0"
                     style="fill:none;stroke:#1f77b4;stroke-width:1.5;stroke-linecap:square"
                     id="path2922"
                     transform="translate(539.42146,-325.77419)" />
                </g>
              </g>
            </g>
          </g>
          <g
             style="stroke-linecap:butt;stroke-linejoin:round"
             id="g3563"
             transform="translate(-488.31036,-14.516751)">
            <g
               id="figure_1-6">
              <g
                 id="axes_1-6">
                <g
                   id="line2d_14-0"
                   transform="translate(-22.499999,-11.785714)">
                  <path
                     clip-path="url(#pcad9bc1006)"
                     d="m 69.218182,174.14245 0.609947,-11.21145 0.609947,-2.2605 1.219894,-3.17193 0.609948,1.55574 0.609947,-5.95774 0.609947,-3.11743 0.609947,-11.66214 0.609947,-8.23068 0.609947,5.47351 0.609948,3.58474 0.609947,-0.77777 0.609947,-2.50229 0.609947,-3.17739 0.609947,-7.96744 0.609947,4.25643 0.609948,1.54442 0.609947,-3.42977 0.609947,4.08265 0.609947,9.33478 0.609947,2.1794 0.609947,-4.16316 0.609948,-2.81769 0.609947,3.38807 0.609947,-2.0807 0.609947,-2.68714 0.609947,2.5602 0.609947,8.19611 0.609948,-5.2144 0.609947,2.65985 0.609947,1.79336 0.609947,-5.32371 0.609947,-7.44134 0.609947,3.63082 0.609948,-3.41059 0.609947,7.49523 0.609947,-2.76784 0.609947,3.82275 0.609947,8.53177 0.609948,-0.43994 0.609947,0.23028 0.609947,8.12705 0.609947,-4.2054 0.609947,-5.64106 0.609947,1.12445 0.609948,2.71524 0.609947,-1.42769 0.609947,-9.82738 0.609947,2.0123 0.609947,3.7913 0.60995,11.9668 0.60994,-2.16123 0.60995,-1.44994 0.60995,7.20326 0.60995,-5.9079 0.60994,-3.89973 0.60995,-0.26313 0.60995,-9.97574 0.60995,-4.42815 0.60994,1.3112 0.60995,5.05313 0.60995,1.9115 0.60994,6.72403 0.60995,-2.25801 0.60995,-1.11242 0.60994,-7.69213 0.60995,2.95669 0.60995,-2.03678 0.60995,2.12593 0.60994,-6.62776 0.60995,-1.70772 0.60995,-9.86875 0.60995,-2.07256 0.60994,-0.26664 0.60995,0.69136 0.60995,-1.42347 0.60994,0.11515 0.60995,-2.32537 0.60995,-0.79941 0.60994,2.63679 0.60995,-8.76561 0.60995,-19.826455 0.60995,-12.063169 0.60994,-5.189543 0.60995,-2.065528 0.60995,-2.843955 1.21989,-12.678829 0.60995,3.209818 0.60995,4.078013 0.60994,-2.244766 0.60995,-8.936141 0.60995,-2.003347 0.60995,-7.964182 0.60994,6.698669 1.2199,5.81505 0.60994,-2.084823 0.60995,9.692057 0.60995,2.549886 0.60995,5.747484 0.60994,-0.202625 0.60995,-4.399252 0.60995,1.863625 0.60994,-6.694798 0.60995,1.799897 0.60995,3.55121 0.60995,-0.429336 0.60994,7.519141 0.60995,14.572585 0.60995,-0.472513 0.60994,-4.186393 0.60995,3.193202 0.60995,1.552879 0.60995,6.819503 0.60994,-4.775203 0.60995,3.242946 0.60995,4.451543 0.60994,1.53472 0.60995,-9.346182 0.60995,0.456 0.60995,-2.941462 0.60994,15.059244 0.60995,-3.19528 0.60995,-9.195426 0.60994,4.506711 0.60995,-0.993097 0.60995,6.802882 0.60995,-2.61329 0.60994,0.15929 0.60995,-6.577263 0.60995,6.677263 0.60994,0.47079 0.60995,8.27023 0.60995,1.33879 0.60995,8.06631 0.60994,-8.8264 0.60995,-6.03364 0.60995,-3.7669 0.60994,-8.415397 0.60995,-10.307408 0.60995,-3.152423 0.60995,-0.620506 0.60994,-2.275339 0.60995,-3.692946 0.60995,5.178648 0.60994,-2.183502 0.60995,-5.131376 0.60995,2.185849 0.60995,9.935941 0.60994,3.646983 0.60995,9.270933 0.60995,1.309524 0.60995,-7.155027 0.60994,1.322239 0.60995,12.459727 0.60995,3.58533 1.21989,-2.10938 0.60995,-8.370609 1.21989,-6.681394 0.60995,1.118631 0.60995,-11.470415 0.60994,-1.900133 0.60995,0.834641 0.60995,6.325942 0.60995,-8.562067 0.60994,7.940643 0.60995,1.737223 0.60995,6.397828 0.60994,-9.546638 0.60995,4.912955 0.60995,0.299286 0.60995,11.50427 0.60994,0.33413 0.60995,1.554337 0.60995,3.46113 0.60995,7.40003 0.60994,-8.44323 0.60995,-1.13676 1.21989,10.73457 0.60995,-3.1626 0.60995,0.65926 0.60994,-5.30426 0.60995,3.89208 0.60995,2.25525 0.60995,4.90608 0.60994,-5.58995 0.60995,-1.27808 0.60995,0.69811 0.60994,4.70287 0.60995,-3.18002 0.60995,-3.92972 0.60995,7.55579 1.21989,11.14102 0.60995,-0.63297 0.60994,2.36981 0.60995,8.77255 0.60995,10.58048 0.60995,-5.81062 0.60994,-6.95425 0.60995,-0.27066 0.60995,-2.8151 0.60994,2.83019 0.60995,-3.02377 0.60995,-0.46943 0.60995,2.36901 0.60994,11.06549 0.60995,-0.60927 0.60995,1.54411 0.60995,4.82855 0.60994,-4.08478 0.60995,-4.94631 0.60995,-9.20841 0.60994,2.99152 0.60995,0.42525 0.60995,9.26651 0.60995,3.24655 0.60994,7.90573 0.60995,-2.9172 0.60995,2.04664 0.60994,-9.56968 0.60995,5.35457 0.60995,1.13859 0.60995,6.13404 0.60994,3.60828 0.60995,0.31581 0.60995,5.73551 0.60994,-4.15472 0.60995,-2.82306 0.60995,1.28713 0.60995,0.0667 0.60994,2.63198 0.60995,1.0959 0.60995,-2.62699 0.60994,5.25312 0.60995,-1.63238 0.60995,6.78944 0.60995,1.8709 0.60994,3.61927 0.60995,-4.85696 0.60995,6.67702 0.60994,2.83095 0.60995,6.23016 0.60995,-2.51261 0.60995,6.67633 0.60994,2.48477 0.60995,1.28584 0.60995,-2.71361 0.60994,3.33386 1.82985,15.97429 0.60994,-1.80679 0.60995,0.6927 0.60995,-0.94369 0.60994,-0.009 0.60995,-8.08972 0.60995,-0.59615 0.60995,-3.62238 1.21989,-10.48816 0.60995,-9.94452 0.60994,-7.43547 0.60995,5.05592 0.60995,7.8691 0.60995,4.095 0.60994,5.24576 0.60995,0.96395 0.60995,6.94852 0.60995,-12.42288 0.60994,-7.18119 0.60995,-3.87011 0.60995,9.74877 0.60994,-6.05715 0.60995,-1.88051 0.60995,0.37294 0.60995,-4.90702 0.60994,-2.83752 0.60995,-0.58949 0.60995,-9.28439 0.60994,2.14285 0.60995,1.50803 0.60995,11.61399 0.60995,5.27726 0.60994,-0.69764 0.60995,0.82767 0.60995,4.06088 0.60994,1.69842 0.60995,-6.69582 0.60995,-9.42414 0.60995,7.98146 0.60994,6.45524 0.60995,4.27703 0.60995,9.7601 0.60994,-8.1849 0.60995,2.65168 0.60995,1.62612 0.60995,2.32038 0.60994,-4.98182 0.60995,-2.21652 0.60995,7.79527 0.60995,-2.09405 0.60994,-0.45339 0.60995,0.81516 0.60995,1.19697 1.21989,-6.35343 0.60995,-1.08943 0.60994,-5.43632 0.60995,-2.66215 0.60995,1.96649 0.60995,-4.13564 0.60994,1.15904 0.60995,-2.09775 0.60995,1.24865 0.60994,7.22792 0.60995,-2.02855 0.60995,-7.58175 0.60995,2.9699 0.60994,2.39961 0.60995,5.03754 0.60995,6.15462 0.60994,-1.85398 0.60995,-0.19233 0.60995,7.48366 0.60995,-1.53706 0.60994,-2.54338 0.60995,5.24638 0.60995,-7.18423 0.60995,1.00099 0.60994,-1.33824 0.60995,-1.76581 0.60995,5.50117 0.60994,9.05157 0.60995,11.49066 0.60995,-7.14321 0.60995,-0.99328 0.60994,-0.44043 0.60995,2.07911 0.60995,5.25898 0.60994,6.68667 0.60995,1.96303 0.60995,-12.14106 1.21989,17.0416 0.60995,-2.40183 0.60995,5.84127 0.60994,2.81645 0.60995,0.098 0.60995,3.23784 1.21989,-16.9083 0.60995,-3.588 0.60995,4.33426 0.60994,0.21824 0.60995,2.00846 0.60995,10.50372 0.60995,-3.78715 0.60994,-2.91627 0.60995,-4.99871 0.60995,-3.83412 0.60994,9.65049 0.60995,-3.9915 0.60995,-4.74018 0.60995,-3.33238 0.60994,-0.18161 0.60995,2.9779 0.60995,-1.52212 0.60994,6.23818 0.60995,2.71994 0.60995,-0.64404 0.60995,-9.63488 0.60994,-5.28236 1.2199,-4.40059 1.21989,14.78253 0.60995,-7.85437 0.60995,7.05843 0.60994,-5.84193 0.60995,8.46551 0.60995,-3.0768 0.60995,-0.76109 0.60994,2.38259 0.60995,-11.12853 0.60995,10.69857 0.60994,-2.87869 0.60995,1.54043 0.60995,-0.20943 0.60995,7.61004 0.60994,-0.71517 0.60995,2.75581 0.60995,-3.4654 0.60994,-4.62885 0.60995,1.856 0.60995,-9.1174 0.60995,-1.78185 0.60994,8.12799 0.60995,-1.84063 0.60995,-2.43869 0.60994,-6.32877 0.60995,-2.74738 0.60995,-3.5608 0.60995,-0.61464 0.60994,-1.16694 0.60995,-2.55926 0.60995,-0.63027 0.60994,-8.98386 0.60995,-3.99627 0.60995,-1.76435 0.60995,-0.33016 0.60994,0.74921 0.60995,4.69694 0.60995,7.8572 0.60994,3.11504 0.60995,-5.55842 0.60995,-4.38572 0.60995,1.55293 0.60994,-8.58792 0.60995,-3.82783 0.60995,1.62513 0.60994,-2.57859 0.60995,-13.20237 0.60995,-3.8445 0.60995,-2.46098 0.60994,3.67534 0.60995,-13.41846 0.60995,-4.35138 0.60995,1.01435 1.21989,12.9434 1.21989,-8.8224 0.60995,13.35289 0.60995,9.67563 0.60995,6.56659 0.60994,-11.47392 0.60995,-3.26621 0.60995,-6.6603 0.60994,3.48739 0.60995,1.23499 0.60995,-4.81133 0.60995,7.94015 0.60994,-3.84152 0.60995,8.12579 0.60995,1.89582 0.60994,2.51169 0.60995,1.3973 0.60995,-3.90467 1.21989,11.0953 0.60995,1.08887 0.60995,-3.72882 0.60994,-1.60859 0.60995,0.70011 0.60995,-5.49809 0.60995,-2.74793 0.60994,-0.53939 0.60995,-0.32667 0.60995,-4.17722 0.60994,5.76195 0.60995,-0.0716 0.60995,6.85702 0.60995,15.36598 0.60994,-4.79017 0.60995,6.2185 0.60995,-1.35917 0.60994,3.48541 0.60995,-2.23871 0.60995,12.14459 0.60995,1.31022 0.60994,-1.24021 0.60995,9.65584 0.60995,-5.26288 0.60995,2.56954 0.60994,-1.00526 0.60995,-1.23857 0.60995,-8.5127 1.21989,6.52943 0.60995,-4.03997 0.60995,-5.2146 0.60994,2.98245 0.60995,-6.93886 0.60995,-0.41148 0.60994,-2.70068 0.60995,-1.50109 0.60995,-0.61057 0.60995,0.46434 0.60994,1.85167 0.60995,-11.13215 0.60995,0.56182 0.60994,4.59127 0.60995,0.9994 0.60995,5.41698 v 0"
                     style="fill:none;stroke:#1f77b4;stroke-width:1.5;stroke-linecap:square"
                     id="path3367" />
                </g>
              </g>
            </g>
          </g>
        </g>
      </g>
    </g>
  </g>
</svg>
